<mxfile host="app.diagrams.net" modified="2021-01-08T07:51:02.911Z" agent="5.0 (Windows NT 6.3; Win64; x64) AppleWebKit/537.36 (KHTML, like Gecko) Chrome/86.0.4240.193 Safari/537.36" etag="IlWb5VphrdGKf8c1rpOK" version="14.1.8" type="github">
  <diagram id="R2lEEEUBdFMjLlhIrx00" name="Page-1">
    <mxGraphModel dx="614" dy="2489" grid="0" gridSize="10" guides="1" tooltips="1" connect="1" arrows="1" fold="1" page="0" pageScale="1" pageWidth="850" pageHeight="1100" math="0" shadow="0" extFonts="Permanent Marker^https://fonts.googleapis.com/css?family=Permanent+Marker">
      <root>
        <mxCell id="0" />
        <mxCell id="1" parent="0" />
        <mxCell id="e_-otAbNgzu8_Yu5JfUF-1" value="用户单位基本信息表" style="whiteSpace=wrap;html=1;align=center;" vertex="1" parent="1">
          <mxGeometry x="121" y="-1638" width="100" height="40" as="geometry" />
        </mxCell>
        <mxCell id="e_-otAbNgzu8_Yu5JfUF-2" value="用水性质比例分配表" style="whiteSpace=wrap;html=1;align=center;" vertex="1" parent="1">
          <mxGeometry x="333" y="-1638" width="100" height="40" as="geometry" />
        </mxCell>
        <mxCell id="e_-otAbNgzu8_Yu5JfUF-3" value="" style="edgeStyle=entityRelationEdgeStyle;fontSize=12;html=1;endArrow=ERoneToMany;exitX=1;exitY=0.5;exitDx=0;exitDy=0;entryX=0;entryY=0.5;entryDx=0;entryDy=0;" edge="1" parent="1" source="e_-otAbNgzu8_Yu5JfUF-1" target="e_-otAbNgzu8_Yu5JfUF-2">
          <mxGeometry width="100" height="100" relative="1" as="geometry">
            <mxPoint x="166" y="-1428" as="sourcePoint" />
            <mxPoint x="266" y="-1528" as="targetPoint" />
          </mxGeometry>
        </mxCell>
      </root>
    </mxGraphModel>
  </diagram>
</mxfile>
